<svg width="250" height="19" viewBox="0 0 250 19" fill="none" xmlns="http://www.w3.org/2000/svg">
<path fill-rule="evenodd" clip-rule="evenodd" d="M34.7805 17.1004C39.2067 17.1004 40.5218 14.4811 40.5218 12.5321C40.5218 8.71003 35.9643 8.54074 35.9643 8.54074C35.9643 8.54074 39.2283 7.91501 39.2283 4.74034C39.2283 1.49388 35.6785 0.747622 34.1873 0.747622H27.9639C28.3147 0.964323 28.5558 1.27718 28.5558 1.83112V16.0223C28.5558 16.5749 28.3147 16.9108 27.9639 17.1018L34.7805 17.1004ZM33.3341 9.54975C35.1747 9.54975 36.269 10.3434 36.269 12.3168C36.269 13.8296 35.5905 15.4643 32.8939 15.4643H32.7408V9.54975H33.3341ZM32.7422 7.86625V2.3336H33.2663C35.1516 2.3336 35.6568 4.11461 35.6568 5.12362C35.6568 6.54166 34.8686 7.86625 33.1363 7.86625H32.7422ZM44.7718 13.2296H49.462C49.9889 14.5285 50.448 15.7325 50.4914 15.8991C50.5794 16.3569 50.5361 16.6684 49.8995 17.1004H56.0782C55.3997 16.5952 55.2466 16.4043 55.0055 15.8991C54.5897 14.9862 48.2566 0 48.2566 0C48.2566 0 42.2947 14.9862 41.7908 15.8991C41.5497 16.3569 41.3087 16.621 40.6938 17.1004H44.3994C43.7845 16.7903 43.6964 16.4287 43.8292 15.8016C43.8305 15.6824 44.2693 14.5285 44.7718 13.2296ZM48.7835 11.5949H45.4517C45.5398 11.4012 47.0512 7.38545 47.0512 7.38545C47.0512 7.38545 47.9952 9.66893 48.7835 11.5949ZM59.3368 16.021V5.02882C59.3368 5.24416 69.966 18.23 69.966 18.23V1.82977C69.966 1.27583 70.1854 0.962969 70.5362 0.746268H67.6216C67.9724 0.962969 68.1904 1.27583 68.1904 1.82977V9.06894L61.3088 0.746268H55.9387C56.3992 1.10789 56.7283 1.49253 56.9694 1.78237C57.6479 2.5503 57.5843 2.67085 57.5843 4.01846V16.021C57.5843 16.5736 57.3635 16.9095 57.0141 17.1004H59.9301C59.5563 16.9095 59.3368 16.5736 59.3368 16.021ZM78.2047 1.82977C78.2047 1.27583 78.4242 0.962969 78.7749 0.746268H73.4278C73.7786 0.962969 74.0197 1.27583 74.0197 1.82977V16.021C74.0197 16.5736 73.7786 16.9095 73.4278 17.1004H78.7763C78.4242 16.9095 78.2061 16.5736 78.2061 16.021V9.7204C78.2061 9.7204 82.3708 15.7325 82.5686 16.0454C82.7663 16.3582 82.6119 16.9338 82.1731 17.1004H89.0114C88.5062 16.9095 87.9143 16.4788 87.7179 16.1876L81.4065 6.95205L86.4245 1.70923C86.82 1.27583 87.5649 0.939945 88.2218 0.746268H83.5532C84.0801 1.08351 84.0354 1.70923 83.774 1.97334C83.3798 2.38236 78.2061 7.69695 78.2061 7.69695L78.2047 1.82977ZM101.102 17.3903C105.616 17.3903 109.561 14.7208 109.561 8.87527C109.561 3.27219 105.157 0.433402 101.235 0.433402C95.8429 0.433402 92.7969 4.28256 92.7969 8.87527C92.7955 13.8066 96.3237 17.3903 101.102 17.3903ZM105.114 9.02155C105.091 13.4707 103.293 15.4657 101.3 15.4657C99.0649 15.4657 97.2663 13.3014 97.288 8.44458C97.311 4.40445 98.9769 2.19004 101.147 2.19004C103.381 2.19004 105.134 4.45186 105.114 9.02155ZM111.547 17.1004H117.07C116.631 16.7673 116.392 16.6454 116.392 16.021L116.413 8.94705H119.481C119.81 8.94705 120.159 9.31003 120.247 9.62154V6.66356C120.159 6.95204 119.809 7.33534 119.481 7.33534H116.413V2.30922L120.709 2.5029C121.651 2.57603 122.024 3.10289 122.221 3.77737L122.023 0.746268H111.547C111.898 0.962969 112.225 1.27583 112.225 1.82977V16.021C112.227 16.6454 112.007 16.7673 111.547 17.1004ZM131.118 9.88564C132.847 11.1127 135.456 11.2089 135.456 13.4693C135.456 14.6463 134.668 15.6567 132.935 15.6567C130.701 15.6567 129.253 13.2757 128.925 11.5434L129.036 16.5939C129.758 16.8851 131.446 17.3903 133.507 17.3903C136.924 17.3903 139.183 15.0336 139.183 12.0256C139.183 8.44322 136.837 7.57777 134.975 6.70961C133.088 5.86854 131.952 5.48525 131.952 4.04283C131.952 2.98371 132.762 2.16566 134.011 2.16566C136.161 2.16566 137.452 4.08888 137.933 5.58006L137.825 1.20269C136.489 0.553943 134.777 0.433402 134.097 0.433402C132.325 0.433402 128.838 1.51691 128.838 5.50828C128.838 7.14437 129.322 8.58679 131.118 9.88564ZM149.736 17.3903C151.796 17.3903 153.485 16.9799 155.348 16.0196C155.348 16.0196 155.544 12.1705 155.501 12.2666C154.58 14.5759 152.409 15.5388 151.358 15.5388C146.995 15.5388 145.879 11.6179 145.879 8.70868C145.879 4.83515 147.961 2.30922 150.831 2.30922C151.883 2.30922 154.206 2.5977 155.322 5.46087C155.367 5.53265 155.169 1.42075 155.169 1.42075C153.439 0.552593 151.86 0.409026 150.063 0.409026C144.476 0.409026 141.561 4.56968 141.561 8.99581C141.561 14.2169 145.416 17.3903 149.736 17.3903ZM165.734 17.3903C170.25 17.3903 174.194 14.7208 174.194 8.87527C174.194 3.27219 169.789 0.433402 165.867 0.433402C160.477 0.433402 157.429 4.28256 157.429 8.87527C157.428 13.8066 160.955 17.3903 165.734 17.3903ZM169.745 9.02155C169.723 13.4707 167.924 15.4657 165.934 15.4657C163.696 15.4657 161.899 13.3014 161.92 8.44458C161.945 4.40445 163.608 2.19004 165.778 2.19004C168.012 2.19004 169.766 4.45186 169.745 9.02155ZM183.247 2.30922C184.845 2.30922 186.796 2.54895 186.796 2.54895C187.302 2.62344 187.455 3.1029 187.651 3.48889L187.606 0.746268H174.7L174.656 3.48889C174.852 3.1029 175.183 2.54895 175.685 2.54895C175.685 2.54895 177.397 2.30922 179.06 2.30922V16.021C179.06 16.5736 178.843 16.9095 178.491 17.1004H183.817C183.467 16.9095 183.248 16.5736 183.248 16.021V2.30922H183.247ZM194.562 1.82977C194.562 1.27583 194.782 0.962969 195.134 0.746268H189.786C190.135 0.962969 190.379 1.27583 190.379 1.82977V16.021C190.379 16.5736 190.135 16.9095 189.786 17.1004H200.041L200.634 13.8811C199.979 15.1054 199.274 15.249 197.217 15.3709C196.23 15.421 194.98 15.3953 194.564 15.3492L194.562 1.82977ZM205.533 13.2296H210.223C210.75 14.5285 211.211 15.7325 211.255 15.8991C211.342 16.3569 211.297 16.6684 210.661 17.1004H216.842C216.165 16.5952 216.012 16.4043 215.768 15.8991C215.352 14.9862 209.02 0 209.02 0C209.02 0 203.058 14.9862 202.553 15.8991C202.312 16.3569 202.072 16.621 201.458 17.1004H205.16C204.55 16.7903 204.459 16.4287 204.592 15.8016C204.592 15.6824 205.028 14.5285 205.533 13.2296ZM209.543 11.5949H206.213C206.3 11.4012 207.814 7.38545 207.814 7.38545C207.814 7.38545 208.755 9.66893 209.543 11.5949ZM220.317 16.021V5.02882C220.317 5.24416 230.949 18.23 230.949 18.23V1.82977C230.949 1.27583 231.169 0.962969 231.518 0.746268H228.603C228.956 0.962969 229.175 1.27583 229.175 1.82977V9.06894L222.292 0.746268H216.923C217.381 1.10789 217.712 1.49253 217.953 1.78237C218.63 2.5503 218.563 2.67085 218.563 4.01846V16.021C218.563 16.5736 218.344 16.9095 217.997 17.1004H220.909C220.537 16.9095 220.317 16.5736 220.317 16.021ZM234.284 17.1004H241.122C246.447 17.1004 250 13.5899 250 8.75472C250 5.86989 248.027 0.746268 240.969 0.746268H234.284C234.636 0.962969 234.877 1.27583 234.877 1.82977V16.021C234.877 16.5736 234.636 16.9095 234.284 17.1004ZM239.062 2.3336H239.567C244.08 2.3336 245.529 6.06086 245.529 8.80349C245.529 12.1001 244.211 15.4643 239.413 15.4643H239.061L239.062 2.3336ZM10.1646 7.3394L0.682609 1.59817V4.84056L7.48838 8.92267L0.675837 13.0021V16.2377L10.1633 10.5032L19.6521 16.2377L19.644 13.0021L12.8395 8.92267L19.6453 4.84056L19.644 1.59817L10.1646 7.3394ZM0 17.4539V12.6161L6.15973 8.92131L0 5.22656V0.390065L10.1633 6.54032L20.3279 0.388711V5.22792L14.1682 8.92267L20.3279 12.6174V17.4553L10.1633 11.305L0 17.4539Z" fill="#9C9C9C"/>
</svg>
