<svg width="150" height="62" viewBox="0 0 150 62" fill="none" xmlns="http://www.w3.org/2000/svg">
<path fill-rule="evenodd" clip-rule="evenodd" d="M110.715 4.00884L113.02 2.70596L112.92 5.61237L116.528 8.11789L112.92 7.51657L112.82 10.5232L110.615 7.01546L106.806 6.31392L109.212 4.91082L107.207 1.50331L110.715 4.00884ZM122.94 3.00663L126.047 3.50773L124.344 4.91082L126.548 8.01767L123.341 5.81281L121.539 7.31612L121.337 4.40972L117.931 2.10464L121.136 2.60574L120.936 0L122.94 3.00663ZM136.27 8.81944L139.176 10.7228L136.57 10.6234L137.272 13.4288L134.967 10.5232L132.261 10.3219L133.664 8.71922L131.359 5.71259L134.466 7.61679L135.668 6.2137L136.27 8.81944ZM147.595 19.442L150 22.3485L146.993 20.6447L146.091 22.6491L145.189 19.6425L142.283 17.9387L144.688 17.8385L143.887 14.9321L146.192 17.7383L148.497 17.6381L147.595 19.442ZM105.604 28.8628L103.7 24.6535L107.708 27.7604L110.916 26.1568L110.114 29.6646L114.022 32.7706L109.613 31.9689L108.711 35.8775L106.806 31.4686L102.196 30.666L105.604 28.8628ZM103.599 13.0279L104.301 9.82165L106.305 13.6292L110.414 14.431L107.608 15.9343L109.613 19.7427L105.704 16.7361L102.597 18.3396L103.299 14.9321L99.3901 12.1259L103.599 13.0279Z" fill="#9C9C9C"/>
<path fill-rule="evenodd" clip-rule="evenodd" d="M26.0307 46.2002C27.4338 45.7993 28.5362 45.4986 29.2378 45.198V48.6055C29.2378 50.1088 27.6342 51.8125 25.8303 51.8125C24.5274 51.8125 23.425 50.7101 23.425 49.4072C23.425 47.6033 24.2275 46.8015 26.0307 46.2002ZM29.2378 41.59C29.2378 42.6924 28.6365 43.2938 27.534 43.6947C26.7323 43.8951 25.5296 44.0955 24.327 44.3962C21.621 44.9975 19.6166 46.2002 19.6166 49.5075C19.7168 52.6143 22.4228 54.3165 24.9283 54.3165C27.534 54.3165 29.0373 53.0152 29.6387 52.2134C29.9393 53.2156 31.0418 54.2162 32.6453 54.2162H33.3468L34.7499 51.9128C34.8502 51.8125 34.6497 51.8125 34.5495 51.9128C34.4493 52.013 33.7477 51.9128 33.3468 51.5119C32.946 51.111 32.7455 50.7101 32.7455 50.1088V42.5922C32.7455 38.9843 30.5407 37.1803 27.2334 37.1803C24.6276 37.1803 22.8236 37.5812 21.8214 37.9821L21.0197 41.6902C21.0197 41.7905 21.1199 41.8907 21.2201 41.7905C22.0219 40.7882 23.6254 39.3852 26.1309 39.3852C28.0351 39.3852 29.2378 40.0867 29.2378 41.59ZM66.0173 44.3962C65.917 41.0889 63.6119 37.1803 59.3024 37.1803C54.993 37.1803 51.8861 40.5878 51.8861 45.5989C51.8861 50.3092 55.0932 54.3165 59.8036 54.3165C62.6097 54.3165 63.8124 53.6165 64.8146 53.1154L65.6164 49.7079C65.6164 49.5075 65.5161 49.5075 65.4159 49.6077C64.9148 50.209 62.9104 51.8125 60.5051 51.8125C58.9016 51.7123 57.6989 50.9106 56.8971 50.0086C56.1956 49.0064 55.6945 47.7035 55.6945 45.8995H66.0164L66.0173 44.3962ZM55.7955 43.6947C55.996 40.7882 57.2988 39.2849 59.203 39.2849C61.1072 39.2849 62.0092 40.8885 62.2097 42.8929V43.6947H55.7955ZM143.586 44.3962C143.486 41.0889 141.181 37.1803 136.871 37.1803C132.562 37.1803 129.455 40.5878 129.455 45.5989C129.455 50.3092 132.562 54.3165 137.372 54.3165C140.178 54.3165 141.381 53.6165 142.383 53.1154L143.185 49.7079C143.185 49.5075 143.085 49.5075 142.884 49.6077C142.483 50.209 140.479 51.8125 138.074 51.8125C136.47 51.7123 135.267 50.9106 134.466 50.0086C133.764 49.0064 133.263 47.7035 133.263 45.8995H143.586V44.3962ZM133.363 43.6947C133.564 40.7882 134.766 39.2849 136.771 39.2849C138.675 39.2849 139.577 40.8885 139.777 42.8929V43.6947H133.363Z" fill="#9C9C9C"/>
<path fill-rule="evenodd" clip-rule="evenodd" d="M74.1352 54.4167C73.133 56.822 72.1308 58.626 70.8279 59.8287C69.7255 60.8309 68.5228 61.4322 66.8191 61.332C66.5184 61.332 65.9171 61.332 65.5162 61.2318L66.1175 58.3254C66.1175 58.3254 66.1175 58.2251 66.2178 58.2251C66.2178 58.2251 66.318 58.2251 66.4182 58.3254C66.7189 58.5258 67.22 58.7262 67.7211 58.7262C68.1219 58.7262 68.6231 58.626 69.1242 58.3254C70.5273 57.6238 71.8301 54.6172 72.4314 53.0153L67.22 40.4876C66.7189 39.285 66.4182 38.7839 66.1175 38.383C65.8169 37.8819 65.5162 37.7817 65.416 37.7817C65.3158 37.7817 65.3158 37.5812 65.416 37.5812H70.8279C70.9281 37.5812 70.9281 37.7817 70.8279 37.7817C70.6275 37.7817 70.5273 38.1826 70.6275 38.7839C70.7277 39.1848 70.8279 39.6859 71.1286 40.4876L74.3356 48.5053L77.5427 40.4876C77.9436 39.4854 78.0422 38.9843 78.144 38.383C78.144 37.9821 77.9436 37.7817 77.7432 37.7817C77.6429 37.7817 77.6429 37.5812 77.7432 37.5812H81.5516C81.6502 37.5812 81.6502 37.7817 81.5516 37.7817C81.4513 37.7817 81.1491 38.0823 80.9486 38.383C80.7482 38.7839 80.4475 39.3852 79.948 40.4876L74.1352 54.4167ZM87.7644 39.3852C86.5618 39.3852 85.2589 39.8863 85.2589 41.1892C85.2589 42.7927 87.0629 43.3941 88.466 43.9954C91.6731 45.198 93.1764 46.3005 93.0761 49.3071C92.9759 52.2135 90.1697 54.3165 86.7622 54.3165C84.7578 54.3165 82.553 53.817 81.3503 53.2157L80.9494 49.9084C80.8492 49.6077 81.0496 49.708 81.1499 49.8082C82.4527 51.0108 84.5574 51.9128 86.4616 51.9128C88.1653 51.9128 89.368 51.1111 89.368 49.708C89.368 48.1044 87.564 47.6033 85.1587 46.6011C82.7534 45.5989 81.3503 44.4965 81.3503 41.991C81.3503 38.9843 84.1565 37.1804 87.3636 37.1804C89.368 37.1804 90.8713 37.5812 91.6731 37.9821V40.7883C91.6731 40.9888 91.6731 41.089 91.4726 40.8885C90.4704 39.9865 89.368 39.3852 87.7644 39.3852ZM119.835 31.9689V51.5119C119.835 52.3137 119.835 52.915 120.036 53.3159C120.134 53.6166 120.234 53.7168 120.335 53.7168C120.435 53.7168 120.435 53.9172 120.335 53.9172H115.626C115.526 53.9172 115.526 53.7168 115.626 53.7168C115.726 53.7168 115.826 53.6166 115.927 53.3159C116.127 52.915 116.227 52.3137 116.227 51.5119V34.4744C116.227 33.5724 116.127 32.9711 116.027 32.5702C115.927 32.2695 115.826 32.1693 115.626 32.1693C115.526 32.1693 115.526 31.9689 115.626 31.9689H119.835ZM49.7823 31.9689V51.5119C49.7823 52.3137 49.7823 52.915 49.9828 53.3159C50.083 53.6166 50.1832 53.7168 50.2834 53.7168C50.3837 53.7168 50.3837 53.9172 50.2834 53.9172H45.573C45.4728 53.9172 45.4728 53.7168 45.573 53.7168C45.7735 53.7168 45.8737 53.6166 45.9739 53.3159C46.0742 52.915 46.1744 52.3137 46.1744 51.5119V34.4744C46.1744 33.5724 46.0742 32.9711 45.9739 32.5702C45.8737 32.2695 45.7735 32.1693 45.573 32.1693C45.4728 32.1693 45.4728 31.9689 45.573 31.9689H49.7823ZM112.319 37.5812V51.5119C112.319 52.3137 112.419 52.915 112.519 53.3159C112.619 53.6166 112.719 53.7168 112.92 53.7168C113.02 53.7168 113.02 53.9172 112.92 53.9172H108.21C108.109 53.9172 108.109 53.7168 108.21 53.7168C108.31 53.7168 108.41 53.6166 108.51 53.3159C108.711 52.915 108.711 52.3137 108.711 51.5119V39.9865C108.711 39.1848 108.711 38.4832 108.51 38.0823C108.41 37.8819 108.31 37.7817 108.21 37.7817C108.109 37.7817 108.109 37.5812 108.21 37.5812H112.319ZM39.9615 37.5812V40.0868C40.5628 38.5835 42.2666 37.3808 43.8701 37.3808H44.3712V41.089C44.3712 41.1892 44.3712 41.2894 44.271 41.1892C43.7699 40.7883 43.2688 40.7883 42.8679 40.7883C41.0639 40.7883 40.0617 42.5923 40.0617 44.6969V51.5119C40.0617 52.3137 40.1619 52.915 40.2621 53.3159C40.3624 53.6166 40.4626 53.7168 40.663 53.7168C40.7632 53.7168 40.7632 53.9172 40.663 53.9172H35.9526C35.8524 53.9172 35.8524 53.7168 35.9526 53.7168C36.0529 53.7168 36.1531 53.6166 36.2533 53.3159C36.4537 52.915 36.4537 52.3137 36.4537 51.5119V39.9865C36.4537 39.1848 36.4537 38.4832 36.2533 38.0823C36.1531 37.8819 36.0529 37.7817 35.9526 37.7817C35.8524 37.7817 35.8524 37.5812 35.9526 37.5812H39.9615ZM127.25 31.9689V51.5119C127.25 52.3137 127.35 52.915 127.45 53.3159C127.551 53.6166 127.651 53.7168 127.751 53.7168C127.851 53.7168 127.851 53.9172 127.751 53.9172H123.041C122.94 53.9172 122.94 53.7168 123.041 53.7168C123.241 53.7168 123.341 53.6166 123.441 53.3159C123.542 52.915 123.642 52.3137 123.642 51.5119V34.4744C123.642 33.5724 123.542 32.9711 123.441 32.5702C123.341 32.2695 123.241 32.1693 123.141 32.1693C123.041 32.1693 123.041 31.9689 123.141 31.9689H127.25ZM18.0139 53.7168C17.9137 53.7168 17.8135 53.6166 17.7132 53.3159C17.5128 52.915 17.4126 52.3137 17.4126 51.5119V34.4744C17.4126 33.5724 17.5128 32.9711 17.613 32.5702C17.7132 32.2695 17.8135 32.1693 18.0139 32.1693C18.1141 32.1693 18.1141 31.9689 18.0139 31.9689H13.2033C13.1031 31.9689 13.1031 32.1693 13.2033 32.1693C13.3035 32.1693 13.4037 32.2695 13.504 32.5702C13.7044 32.9711 13.7044 33.5724 13.7044 34.4744V41.089H4.38466V34.4744C4.38466 33.5724 4.38466 32.9711 4.58511 32.5702C4.68533 32.2695 4.78555 32.1693 4.88577 32.1693C4.98599 32.1693 4.98599 31.9689 4.88577 31.9689H0.0751657C-0.0250552 31.9689 -0.0250552 32.1693 0.0751657 32.1693C0.175387 32.1693 0.275607 32.2695 0.375828 32.5702C0.57627 32.9711 0.57627 33.5724 0.57627 34.4744V51.5119C0.57627 52.3137 0.57627 52.915 0.375828 53.3159C0.275607 53.6166 0.175387 53.7168 0.0751657 53.7168C-0.0250552 53.7168 -0.0250552 53.9172 0.0751657 53.9172H4.88577C4.98599 53.9172 4.98599 53.7168 4.88577 53.7168C4.78555 53.7168 4.68533 53.6166 4.58511 53.3159C4.38466 52.915 4.38466 52.3137 4.38466 51.5119V43.5945H13.7044V51.5119C13.7044 52.3137 13.7044 52.915 13.504 53.3159C13.4037 53.6166 13.3035 53.7168 13.2033 53.7168C13.1031 53.7168 13.1031 53.9172 13.2033 53.9172H18.0139C18.1141 53.9172 18.1141 53.7168 18.0139 53.7168Z" fill="#9C9C9C"/>
<path fill-rule="evenodd" clip-rule="evenodd" d="M99.7909 54.1161L94.1786 40.4876C93.6775 39.285 93.3768 38.7839 93.0761 38.383C92.7755 37.8819 92.575 37.7817 92.4748 37.7817C92.3746 37.7817 92.3746 37.5812 92.4748 37.5812H97.7865C97.8868 37.5812 97.8868 37.7817 97.7865 37.7817C97.5861 37.7817 97.5861 38.1826 97.5861 38.7839C97.6863 39.1848 97.8868 39.6859 98.1874 40.4876L100.994 48.4051L104.201 40.4876C104.602 39.4854 104.802 38.9843 104.802 38.383C104.802 37.9821 104.602 37.7817 104.401 37.7817C104.301 37.7817 104.301 37.5812 104.401 37.5812H108.41C108.51 37.5812 108.51 37.7817 108.41 37.7817C108.209 37.7817 108.009 38.0823 107.809 38.383C107.508 38.7839 107.207 39.3852 106.706 40.4876L100.994 54.1161H99.7909ZM144.488 53.3159C144.688 53.4161 144.889 53.4161 145.189 53.4161C145.59 53.4161 145.791 53.2157 145.791 52.915C145.791 52.7146 145.59 52.5142 145.189 52.4139C144.789 52.2135 144.488 52.013 144.488 51.6122C144.488 51.1111 144.789 50.8104 145.39 50.8104C145.691 50.8104 145.891 50.8104 146.091 50.9106L145.891 51.2113C145.891 51.2113 145.691 51.1111 145.39 51.1111C144.989 51.1111 144.889 51.3115 144.889 51.5119C144.889 51.8126 144.989 51.9128 145.39 52.1133C145.891 52.3137 146.192 52.5142 146.192 52.915C146.192 53.4161 145.791 53.817 145.189 53.817C144.889 53.817 144.588 53.7168 144.388 53.6166L144.488 53.3159ZM149.098 52.4139V51.2113C148.998 51.5119 148.797 51.9128 148.697 52.3137L148.196 53.7168H147.895L147.394 52.3137C147.294 51.9128 147.194 51.5119 147.094 51.2113C147.094 51.5119 147.094 52.013 146.993 52.5142V53.7168H146.593L146.793 50.8104H147.294L147.795 52.2135C147.895 52.6144 147.996 52.915 148.096 53.2157C148.096 52.915 148.296 52.6144 148.396 52.2135L148.898 50.8104H149.399L149.599 53.7168H149.198L149.098 52.4139Z" fill="#9C9C9C"/>
</svg>
