<svg width="150" height="36" viewBox="0 0 150 36" fill="none" xmlns="http://www.w3.org/2000/svg">
<path d="M129.121 0C121.33 0 114.914 6.29522 114.914 14.1929C114.914 21.976 121.215 28.3857 129.121 28.3857C136.911 28.3857 143.327 22.0905 143.327 14.1929C143.327 6.29522 136.911 0 129.121 0ZM140.119 6.29522C139.432 6.75306 138.63 7.21089 137.828 7.66873C137.37 6.75306 136.797 5.83739 136.109 5.03618C136.682 4.6928 137.255 4.23497 137.713 3.89159C138.744 4.46389 139.546 5.37955 140.119 6.29522ZM134.162 1.60242C135.307 2.06025 136.338 2.63255 137.37 3.43376C136.911 3.89159 136.338 4.23497 135.766 4.57834C135.078 3.77713 134.276 3.09038 133.474 2.40363C133.703 2.06025 133.932 1.83134 134.162 1.60242ZM135.307 4.80726C134.505 5.2651 133.703 5.49401 132.901 5.83739C132.558 5.03618 132.214 4.23497 131.756 3.54822C132.214 3.3193 132.672 3.09038 133.016 2.74701C133.818 3.3193 134.62 4.00605 135.307 4.80726ZM133.589 1.3735C133.36 1.60242 133.13 1.83134 133.016 2.06025C132.214 1.60242 131.526 1.14459 130.61 0.80121C131.641 0.80121 132.672 1.03013 133.589 1.3735ZM132.558 2.40363C132.214 2.63255 131.87 2.86146 131.526 2.97592C131.068 2.28917 130.61 1.71688 130.152 1.03013C130.954 1.3735 131.756 1.83134 132.558 2.40363ZM129.35 1.14459C129.923 1.71688 130.381 2.40363 130.839 3.20484C130.381 3.3193 129.923 3.43376 129.35 3.43376V1.14459ZM129.35 4.00605C129.923 4.00605 130.61 3.89159 131.183 3.66268C131.641 4.34943 131.985 5.15064 132.328 5.95185C131.412 6.18076 130.381 6.29522 129.35 6.40968V4.00605ZM128.777 1.14459V3.43376C128.319 3.43376 127.86 3.3193 127.287 3.20484C127.86 2.51809 128.319 1.83134 128.777 1.14459ZM126.829 2.97592C126.485 2.86146 126.027 2.63255 125.798 2.40363C126.6 1.9458 127.402 1.48796 128.204 1.14459C127.631 1.71688 127.173 2.28917 126.829 2.97592ZM127.631 0.686752C126.829 1.03013 126.027 1.48796 125.225 1.9458C124.996 1.71688 124.767 1.48796 124.652 1.25904C125.569 1.03013 126.6 0.80121 127.631 0.686752ZM137.37 24.952C135.536 23.9218 135.422 22.4339 135.536 21.9761C135.651 21.4038 135.995 21.6327 136.224 21.6327C137.484 21.6327 138.744 21.2893 140.348 19.5724C142.182 17.7411 142.754 13.6206 139.89 10.988C136.911 8.12656 133.703 8.5844 131.641 11.2169C131.183 11.7892 130.152 12.1326 129.35 12.1326C127.975 12.1326 128.891 13.1627 128.891 13.3917C128.891 13.6206 128.662 13.735 128.548 13.735C128.089 13.6206 128.319 14.3073 128.319 14.4218C128.319 14.5362 128.089 14.7652 128.089 14.7652C127.517 14.7652 127.631 15.223 127.746 15.4519C127.746 15.5664 127.746 15.7953 127.517 15.9097C127.287 16.0242 127.173 16.482 127.173 16.8254C127.173 17.3977 127.746 17.8555 128.662 18.5423C129.579 19.229 129.693 19.9158 129.693 20.3736C129.693 20.8315 129.808 21.6327 129.923 22.0905C130.152 22.6628 130.152 23.8074 128.891 23.8074C127.287 23.9218 124.538 25.0664 124.309 25.1809C123.392 25.5243 122.246 25.6387 121.33 25.4098C120.871 25.0664 120.413 24.7231 119.955 24.2652C119.726 23.6929 120.069 23.0062 120.413 22.5483C120.986 23.1206 121.673 23.0062 122.132 23.0062C122.59 23.0062 124.652 22.6628 124.996 22.5483C125.34 22.4339 125.454 22.4339 125.569 22.5483C126.371 22.8917 127.517 22.8917 127.975 21.4038C128.433 19.8013 127.402 20.2592 127.173 20.3736C127.058 20.4881 126.829 20.3736 126.944 20.2592C127.173 19.9158 126.829 19.9158 126.715 19.9158C126.256 19.9158 125.683 20.3736 125.569 20.4881C125.34 20.6025 125.225 20.6025 125.111 20.6025C124.538 20.2592 122.819 20.717 122.246 19.8013C122.246 19.5724 121.788 15.7953 121.559 15.1085C121.559 14.9941 121.444 14.7652 121.673 14.5362C122.132 13.8495 123.277 14.5362 123.965 14.5362C124.767 14.5362 124.881 14.1929 125.111 13.9639C125.34 13.735 125.454 13.8495 125.569 13.735C125.683 13.6206 125.569 13.5061 125.569 13.3917C125.569 13.2772 125.683 13.3917 125.798 13.2772C125.913 13.1627 125.798 12.9338 125.798 12.8194C126.027 12.476 126.485 12.7049 126.256 12.0182C126.142 11.5603 126.371 11.1025 126.6 10.8736C126.944 10.4157 128.433 8.35548 125.913 6.18076C123.507 4.12051 120.986 4.34943 119.382 6.06631C117.778 7.78319 118.58 10.3013 118.695 10.988C118.809 11.6748 118.351 12.2471 117.778 12.476C117.32 12.7049 116.289 13.3917 115.601 13.9639C115.716 8.46994 119.038 3.66268 124.079 1.71688C124.309 1.9458 124.538 2.28917 124.767 2.51809C124.194 2.97592 122.934 4.00605 122.934 4.00605C122.934 4.00605 123.048 4.00605 123.277 4.12051C123.392 4.12051 123.621 4.23497 123.621 4.23497C123.621 4.23497 124.652 3.3193 125.225 2.97592C125.569 3.3193 126.027 3.54822 126.485 3.77713C126.256 4.23497 125.569 5.37955 125.569 5.37955C125.569 5.37955 125.683 5.49401 125.798 5.49401C125.913 5.60847 126.027 5.60847 126.027 5.60847C126.027 5.60847 126.715 4.34943 126.944 3.89159C127.517 4.12051 128.089 4.23497 128.662 4.23497V6.52414C128.319 6.52414 127.517 6.52414 127.173 6.40968H126.944L127.058 6.6386C127.173 6.75306 127.173 6.86752 127.287 6.98197H128.662V11.2169H129.235V10.1868C130.152 10.1868 130.839 10.0724 131.641 9.9579L132.443 9.27115H131.985C131.068 9.38561 130.266 9.50006 129.579 9.50006H129.235V6.86752C130.266 6.86752 131.412 6.75306 132.443 6.40968L133.245 8.81331L133.818 8.58439L133.016 6.18076C133.932 5.95185 134.734 5.49401 135.536 5.15064C136.224 5.95185 136.797 6.86752 137.255 7.78319C136.797 8.0121 136.109 8.24102 136.109 8.24102C136.682 8.35548 137.14 8.46994 137.14 8.46994C137.14 8.46994 137.37 8.35548 137.484 8.35548C137.484 8.46994 137.599 8.69885 137.599 8.69885L138.401 9.04223L138.286 8.81331C138.286 8.81331 138.057 8.24102 137.942 8.12656C138.744 7.78318 139.546 7.32535 140.348 6.75306C141.838 8.92777 142.525 11.5603 142.525 14.1929C142.754 18.5423 140.578 22.4339 137.37 24.952ZM113.654 3.77713L113.424 4.00605C112.622 4.6928 110.675 6.6386 111.018 8.81331V8.92777L111.133 9.3856L111.362 9.15669C112.508 8.12656 113.424 6.29522 113.768 4.23497L113.883 3.66268L113.654 3.77713ZM109.758 7.43981L109.644 7.66873C109.529 8.0121 109.3 8.81331 109.185 9.72898C108.956 11.1025 109.071 13.1627 110.216 14.6507L110.331 14.8796L110.446 15.1085L110.675 14.1929C110.904 12.5904 110.56 9.27115 109.987 7.78319L109.758 7.32535V7.43981ZM108.383 13.1627V13.3917C108.269 14.7652 108.383 18.3134 111.248 20.2592L111.591 20.4881V20.0303C111.591 18.6568 109.987 14.6507 108.842 13.2772L108.498 12.8194L108.383 13.1627ZM108.842 19.458V19.6869C109.3 21.7471 111.133 24.952 114.112 25.9821L114.57 26.0966L114.456 25.6387C113.883 24.1508 111.018 20.6025 109.185 19.458L108.842 19.229V19.458ZM114.914 6.86752L114.57 6.98197C112.393 8.35548 111.362 9.9579 111.362 12.0182V12.476L111.706 12.2471C112.852 11.2169 114.456 8.69885 114.799 7.32535L114.914 6.75306V6.86752ZM113.539 11.2169L113.424 11.4459C112.852 12.0182 111.018 13.9639 111.133 16.3676C111.133 16.711 111.248 17.1688 111.362 17.5122L111.477 17.8555L111.706 17.5122C112.622 16.2531 113.768 13.0483 113.654 11.5603V11.1025L113.539 11.2169ZM113.654 15.4519L113.539 15.6808C112.622 17.0543 112.164 18.4278 112.164 19.8013C112.164 20.717 112.508 21.6327 113.081 22.5483L113.31 22.8917L113.424 22.5483C113.768 21.7471 114.112 19.3435 114.112 17.3977C114.112 16.711 113.997 16.1387 113.883 15.7953L113.768 15.3375L113.654 15.4519ZM114.685 19.9158L114.57 20.1447C114.341 21.0604 114.112 21.8616 114.226 22.7773C114.226 24.6086 115.143 26.0966 116.747 27.1267L116.976 27.2411L117.091 26.8978V26.5544C117.091 25.0664 115.945 21.1748 115.028 20.0303L114.799 19.6869L114.685 19.9158ZM111.591 25.8676L111.706 26.0966C112.852 28.0424 114.914 30.6749 118.695 29.9882H119.038L118.809 29.7592C118.122 28.7291 113.539 26.0966 111.935 25.8676L111.477 25.7532L111.591 25.8676ZM117.205 30.9038L116.632 31.0183L117.205 31.2472C119.611 32.2773 122.59 32.5062 124.423 31.9339C125.111 31.705 125.454 31.3617 125.913 30.9038C129.006 31.2472 131.87 33.7653 133.589 35.8255L133.703 35.94H133.818C134.047 35.8255 134.276 35.5966 134.391 35.4822L134.505 35.3677L134.391 35.2532C132.672 32.9641 129.923 31.5906 129.808 31.4761C127.287 30.3315 122.934 29.4159 117.205 30.9038Z" fill="#9C9C9C"/>
<path d="M117.32 24.4942V24.7231C117.664 27.0122 118.58 29.9882 122.475 29.6448H122.705L122.59 29.4159C122.361 28.3857 118.809 25.4098 117.549 24.6086L117.205 24.3797L117.32 24.4942ZM144.358 3.54823L144.473 4.12052C144.817 6.18077 145.733 8.01211 146.879 9.04224L147.108 9.27116L147.223 8.81332V8.69886C147.566 6.52415 145.619 4.57835 144.817 3.8916L144.587 3.66268L144.358 3.54823ZM148.368 7.2109L148.139 7.66874C147.566 9.1567 147.337 12.476 147.452 14.0784L147.681 14.9941L147.795 14.8796L147.91 14.6507C149.17 13.1627 149.17 11.217 148.941 9.72899C148.827 8.69886 148.597 8.01211 148.483 7.66874L148.368 7.43982V7.2109ZM149.858 12.9338L149.514 13.3917C148.368 14.8796 146.764 18.7712 146.764 20.1447V20.6026L147.108 20.3736C149.972 18.5423 150.087 14.9941 149.972 13.5061V13.2772L149.858 12.9338ZM149.399 19.2291L148.941 19.458C147.108 20.6026 144.244 24.1508 143.671 25.6387L143.556 26.0966L144.015 25.9821C146.993 25.0664 148.941 21.7471 149.285 19.6869V19.458L149.399 19.2291ZM143.327 6.63861L143.442 7.2109C143.9 8.69886 145.275 11.217 146.535 12.2471L146.879 12.476V12.0182C146.993 9.95791 145.962 8.35549 143.785 6.98198L143.556 6.86753L143.327 6.63861ZM144.587 11.1025V11.5603C144.473 13.0483 145.733 16.3676 146.535 17.5122L146.764 17.8556L146.879 17.5122C146.993 17.0543 147.108 16.711 147.108 16.3676C147.223 13.964 145.389 12.0182 144.817 11.4459L144.702 11.3314L144.587 11.1025ZM144.473 15.223L144.358 15.6808C144.244 16.0242 144.129 16.5965 144.129 17.2833C144.129 19.2291 144.358 21.6327 144.817 22.4339L144.931 22.7773L145.16 22.4339C145.733 21.6327 146.077 20.717 146.077 19.6869C146.077 18.4278 145.619 16.9399 144.702 15.5664L144.587 15.3375L144.473 15.223ZM143.442 19.6869L143.213 20.0303C142.296 21.1749 141.15 25.0664 141.15 26.5544V26.8978L141.265 27.2412L141.494 27.1267C143.098 26.0966 143.9 24.6086 144.015 22.7773C144.015 21.9761 143.9 21.0604 143.671 20.1447L143.556 19.9158L143.442 19.6869ZM146.764 25.6387L146.306 25.7532C144.702 25.9821 140.119 28.6147 139.432 29.6448L139.203 29.8737H139.546C143.327 30.5605 145.389 27.9279 146.535 25.9821L146.65 25.7532L146.764 25.6387ZM128.548 31.4761C128.433 31.4761 125.683 32.9641 123.965 35.2533L123.85 35.3677L123.965 35.4822C124.079 35.5966 124.423 35.8256 124.538 35.94H124.652L124.767 35.8256C126.485 33.7653 129.35 31.1328 132.443 30.9038C132.901 31.3617 133.36 31.705 133.932 31.934C135.651 32.5063 138.744 32.2773 141.15 31.2472L141.723 31.0183L141.15 30.9038C135.307 29.4159 130.954 30.3315 128.548 31.4761ZM140.921 24.2652L140.578 24.4942C139.317 25.2954 135.88 28.2713 135.536 29.3014L135.422 29.5303H135.651C139.432 29.8737 140.348 26.8978 140.807 24.6086V24.3797L140.921 24.2652ZM44.2241 1.37351H49.036V5.72294H44.2241V1.37351ZM44.6823 10.7591H48.6923V32.0484H44.6823V10.7591ZM14.3213 10.7591H18.3312V32.0484H14.4358V28.958H14.3213C12.7173 31.5906 9.9676 32.7352 6.98878 32.7352C2.52054 32.7352 0 29.3014 0 25.0664V10.7591H4.00995V23.3496C4.00995 27.0122 4.81194 29.7593 8.70733 29.7593C10.3113 29.7593 12.6027 28.958 13.4047 26.6689C14.2067 24.7231 14.2067 22.205 14.2067 21.6327V10.7591H14.3213ZM26.3511 13.8495C27.8405 11.217 30.7048 10.0724 32.8816 10.0724C34.371 10.0724 40.9015 10.4157 40.9015 17.2833V31.934H36.8916V18.5423C36.8916 14.9941 35.4022 13.1627 31.9651 13.1627C31.9651 13.1627 29.7882 13.0483 28.0697 14.7652C27.4968 15.3375 26.3511 16.2531 26.3511 20.4881V32.0484H22.3412V10.7591H26.3511V13.8495ZM65.5341 17.5122C65.305 14.8796 64.0447 13.0483 61.1804 13.0483C57.3996 13.0483 55.9102 16.3676 55.9102 21.2893C55.9102 26.211 57.3996 29.5303 61.1804 29.5303C63.8156 29.5303 65.4195 27.8135 65.6487 24.7231H69.6586C69.3149 29.5303 65.7632 32.3918 61.0659 32.3918C54.3062 32.3918 51.5566 27.5845 51.5566 21.4038C51.5566 15.223 54.6499 10.0724 61.4096 10.0724C65.8778 10.0724 69.2003 12.9338 69.4295 17.5122H65.5341ZM75.6163 22.0905C75.2726 25.7532 76.8765 29.6448 80.8865 29.6448C83.9799 29.6448 85.5839 28.3857 86.0422 25.2954H90.2813C89.5938 30.1026 85.9276 32.5063 80.8865 32.5063C74.1269 32.5063 71.3772 27.699 71.3772 21.5182C71.3772 15.3375 74.4706 10.1868 81.2302 10.1868C87.5316 10.3013 90.5104 14.3073 90.5104 20.1447V22.0905H75.6163ZM86.3859 19.3435C86.5004 15.7953 84.8965 13.0483 81.0011 13.0483C77.6785 13.0483 75.7308 15.9098 75.7308 19.3435H86.3859ZM95.0932 31.8195V13.5061H91.427V10.7591H95.0932V6.18077C95.2078 1.60243 98.7594 0.343384 101.738 0.343384C102.655 0.343384 103.686 0.572301 104.603 0.801218V4.12052C103.915 4.12052 103.228 4.00606 102.54 4.00606C100.249 4.00606 98.9886 4.57835 99.1031 6.86753V10.7591H104.03V13.5061H99.1031V31.8195H95.0932Z" fill="#9C9C9C"/>
</svg>
