<svg width="150" height="41" viewBox="0 0 150 41" fill="none" xmlns="http://www.w3.org/2000/svg">
<path fill-rule="evenodd" clip-rule="evenodd" d="M9.17336 18.0557C11.4035 15.665 14.4992 14.7612 17.5103 14.7612C21.9169 14.7612 25.1107 17.3823 25.1107 22.458V36.7805C25.3129 38.3927 27.0251 38.5208 28.5861 38.5208L28.8703 39.4127H16.545L16.9171 38.5208C17.5308 38.5208 20.2637 38.1393 20.2637 36.7805V23.553C20.2637 19.7601 19.1097 16.5808 14.9831 16.5808C13.0303 16.5808 10.2172 18.4645 9.17336 20.1194V36.7805C9.36881 37.8841 10.6013 38.5208 12.1623 38.5208L12.4218 39.4127H0.739127L1.09162 38.5208C1.70528 38.5208 3.75026 37.6169 3.75026 36.7805V13.2548C3.75026 4.49876 3.68027 2.41623 2.34284 2.41623L0 1.98351V1.31949C3.3457 0.984922 5.82766 0.650349 9.17422 0.0921631L9.17336 18.0557ZM90.065 36.7805C90.2605 37.8841 91.4921 38.5208 93.054 38.5208L93.3143 39.4127H81.6308L81.9842 38.5208C82.5978 38.5208 84.6411 37.6169 84.6411 36.7805V27.9622C84.6411 19.2062 84.5728 17.1237 83.2345 17.1237L80.8925 16.6918V16.0278C84.2382 15.6932 86.7202 15.3586 90.0659 14.8004L90.065 36.7805ZM43.6315 24.5286C43.6588 23.5001 43.6358 22.6816 43.6358 22.6816C43.6358 21.8563 43.716 16.2599 40.3242 16.2599C39.0414 16.2599 37.1014 16.2599 36.7626 17.1083C35.6368 19.9223 35.4849 21.0933 33.0302 21.0933C32.0265 21.0933 31.0783 20.3686 31.0783 19.3095C31.0783 14.3097 36.6772 15.1581 40.4087 15.1581C45.2429 15.1581 48.3812 18.38 48.3812 22.5707V33.5611C48.1798 38.269 50.7241 39.6354 52.7067 36.1899L53.5227 36.137C52.8868 41.7999 44.2255 40.261 44.0822 36.1651C42.0201 39.0738 39.801 40.3063 36.6781 40.3063C33.4433 40.3063 29.6811 38.0189 29.6811 34.8405C29.6811 25.9906 38.0027 29.3628 43.6315 24.5286ZM43.5683 26.2458C42.2958 28.0262 34.9813 29.7127 34.9813 33.8154C34.9813 35.4874 35.8289 38.3526 38.0343 38.3526C42.1055 38.3526 42.953 36.2325 43.6358 33.8154C43.6366 33.8154 43.7749 25.9573 43.5683 26.2458ZM124.498 24.5286C124.525 23.5001 124.502 22.6816 124.502 22.6816C124.502 21.8563 124.584 16.2599 121.189 16.2599C119.907 16.2599 117.967 16.2599 117.629 17.1083C116.502 19.9223 116.35 21.0933 113.896 21.0933C112.893 21.0933 111.944 20.3686 111.944 19.3095C111.944 14.3097 117.544 15.1581 121.275 15.1581C126.109 15.1581 129.248 18.38 129.248 22.5707V33.5611C129.047 38.269 131.59 39.6354 133.572 36.1899L134.389 36.137C133.752 41.7999 125.092 40.261 124.948 36.1651C122.886 39.0738 120.665 40.3063 117.543 40.3063C114.308 40.3063 110.547 38.0189 110.547 34.8405C110.547 25.9906 118.869 29.3628 124.498 24.5286ZM124.434 26.2458C123.162 28.0262 115.847 29.7127 115.847 33.8154C115.847 35.4874 116.695 38.3526 118.9 38.3526C122.972 38.3526 123.82 36.2325 124.501 33.8154C124.502 33.8154 124.64 25.9573 124.434 26.2458Z" fill="#9C9C9C"/>
<path fill-rule="evenodd" clip-rule="evenodd" d="M85.2624 3.47285C85.2624 1.82902 86.5896 0.609375 88.1797 0.609375C89.8235 0.609375 91.1498 1.82902 91.1498 3.47285C91.1498 5.17045 89.8226 6.33718 88.1797 6.33718C86.5896 6.33718 85.2624 5.11753 85.2624 3.47285Z" fill="#9C9C9C"/>
<path fill-rule="evenodd" clip-rule="evenodd" d="M110.038 36.1037C109.021 38.1393 107.79 40.3046 103.423 40.3046C98.7937 40.3046 96.8904 38.2955 96.8904 33.8897V17.3259L94.295 17.308L94.3735 16.2932C96.9041 15.5592 99.258 12.665 100.273 8.62542H101.388V15.6522H108.958V17.6895H101.77V32.3287C101.77 35.5079 102.025 38.2664 105.203 38.2664C107.409 38.2664 108.427 37.3762 108.913 36.1378L110.038 36.1037ZM150 36.1037C148.982 38.1393 147.753 40.3046 143.385 40.3046C138.756 40.3046 136.853 38.2955 136.853 33.8897V17.3259L134.257 17.308L134.336 16.2932C136.866 15.5592 139.219 12.665 140.235 8.62542H141.351V15.6522H148.919V17.6895H141.732V32.3287C141.732 35.5079 141.987 38.2664 145.166 38.2664C147.371 38.2664 148.388 37.3762 148.875 36.1378L150 36.1037ZM61.1572 18.2085L61.1034 0C58.061 0.518401 55.0009 0.927774 51.9292 1.22733V1.89135L54.272 2.32407C55.6103 2.32407 55.6795 4.40574 55.6795 13.1626L55.7972 31.5486C55.7972 34.7279 55.63 37.8516 55.4627 40.5837H56.9128L60.1697 37.8235L60.2226 37.8081C62.5655 39.1464 63.85 40.2901 66.5837 40.2901C74.9488 40.2901 79.6866 34.4889 79.6866 26.4029C79.6866 20.8816 74.627 14.7467 68.4921 14.7467C65.201 14.7458 62.3017 15.8195 61.1572 18.2085ZM61.0923 20.3226C61.6642 18.5977 64.4355 16.452 67.0079 16.452C72.4173 16.452 73.5866 24.0054 73.5866 28.4658C73.5866 33.1497 71.0202 38.4491 65.4426 38.4491C63.8807 38.4491 62.3751 37.7475 61.0923 36.9102V20.3226Z" fill="#9C9C9C"/>
</svg>
