<svg width="150" height="26" viewBox="0 0 150 26" fill="none" xmlns="http://www.w3.org/2000/svg">
<path fill-rule="evenodd" clip-rule="evenodd" d="M0.00201416 0.644883C0.832302 0.715417 1.66158 0.822221 2.48986 0.822221C3.31914 0.822221 4.14842 0.716425 4.9787 0.644883V10.7746C4.9787 12.7365 4.9122 15.6636 5.21046 17.5167C5.50872 19.2639 5.77473 20.3703 6.96877 21.6177C8.03082 22.6878 9.29136 23.1523 10.7504 23.1523C13.8358 23.1523 15.4943 21.9402 16.6551 18.8367C17.2527 17.2658 17.2527 13.2 17.2527 11.4527V0.643869C18.1315 0.784009 19.0269 0.784009 19.9058 0.643869V13.3441C19.806 17.4098 19.8403 21.1199 16.3891 23.6884C14.5976 25.0799 12.3092 25.5797 10.1186 25.5797C6.10423 25.5797 1.75831 24.2234 0.53102 19.5853C0.166258 18.1938 0 16.6249 0 15.1981V0.644883H0.00201416ZM26.5732 0.644883H29.8571C34.5678 6.17275 39.5112 11.5948 44.1897 17.3393V0.644883C45.0688 0.785284 45.9646 0.785284 46.8438 0.644883V25.0981H44.0234C40.1753 20.4972 36.5921 16.0909 32.8437 11.8457L29.2273 7.77991V25.0457C28.7961 25.0104 28.3316 24.9379 27.9003 24.9379C27.469 24.9379 27.0045 25.0104 26.5732 25.0457V0.644883ZM52.6114 0.644883C53.4397 0.715417 54.27 0.822221 55.0993 0.822221C55.9286 0.822221 56.7578 0.716425 57.5881 0.644883V25.1152C56.7578 25.0447 55.9296 24.9358 55.0993 24.9358C54.27 24.9358 53.4407 25.0436 52.6114 25.1152V0.644883ZM81.9295 20.9759L81.1989 24.0441C79.2089 25.1505 76.854 25.5787 74.6302 25.5787C67.5314 25.5787 62.1557 20.869 62.1557 13.5556C62.1557 4.24514 68.128 0 75.3597 0C77.5493 0 80.2024 0.608602 82.127 1.74924C81.8277 2.96142 81.6292 4.1736 81.3632 5.42306H80.8987C79.6724 3.49647 77.5493 2.1402 75.393 2.1402C69.8863 2.1402 67.6634 7.81216 67.6634 13.0569C67.6634 19.1561 70.4495 23.4365 75.5582 23.4365C77.6158 23.4365 80.0039 22.2948 81.4972 20.7602L81.9295 20.9759ZM97.189 25.5797C89.8585 25.5797 84.9141 20.9406 84.9141 12.8443C84.9141 5.74551 89.7235 0.00099939 97.9861 0.00099939C107.441 0.00099939 110.227 7.17231 110.261 12.7012C110.292 19.6579 105.318 25.5797 97.189 25.5797ZM90.4218 13.8771C90.4218 18.5162 92.3796 23.4375 97.3553 23.4375C102.464 23.4375 104.753 17.9449 104.753 12.023C104.753 7.4222 102.763 2.14122 97.7866 2.14122C93.1746 2.14222 90.4218 5.88758 90.4218 13.8771ZM118.745 25.1152C117.917 25.0447 117.087 24.9358 116.257 24.9358C115.427 24.9358 114.599 25.0436 113.768 25.1152V0.644883H121.929C126.542 0.644883 129.03 2.642 129.03 6.67253C129.03 13.0216 124.717 14.3769 118.745 14.3769V25.1152ZM118.745 12.415C119.476 12.3798 120.237 12.3445 120.934 12.1651C123.091 11.5233 123.888 9.49088 123.888 7.3144C123.888 4.46079 122.528 2.57148 120.803 2.57148H118.746L118.745 12.415ZM134.208 17.6597C133.347 20.3693 132.516 22.582 131.886 25.0437C131.355 25.0084 130.858 24.9358 130.327 24.9358C129.796 24.9358 129.264 25.0084 128.735 25.0437L138.223 0.321435C139.057 0.465858 139.91 0.465858 140.744 0.321435L150 25.1142C149.038 25.0437 148.109 24.9348 147.148 24.9348C146.186 24.9348 145.257 25.0427 144.295 25.1142C143.531 22.4752 142.835 20.0488 141.939 17.6597H134.208ZM141.175 15.4833L138.223 7.17231L135.103 15.4833H141.175Z" fill="#9C9C9C"/>
</svg>
