<svg width="50" height="49" viewBox="0 0 50 49" fill="none" xmlns="http://www.w3.org/2000/svg">
<path d="M25.0001 0C11.1947 0 0 11.1927 0 25.0001C0 36.046 7.16328 45.417 17.0967 48.7228C18.346 48.9542 18.8048 48.1805 18.8048 47.5201C18.8048 46.924 18.7815 44.9545 18.7709 42.8655C11.8157 44.3778 10.3481 39.9158 10.3481 39.9158C9.21085 37.0261 7.57228 36.2579 7.57228 36.2579C5.30413 34.7062 7.74326 34.738 7.74326 34.738C10.2538 34.9145 11.5757 37.3144 11.5757 37.3144C13.8054 41.1364 17.4241 40.0313 18.8507 39.3927C19.075 37.7767 19.723 36.674 20.4379 36.0497C14.8852 35.4174 9.04772 33.2737 9.04772 23.6945C9.04772 20.9651 10.0244 18.7348 11.6237 16.9841C11.3641 16.3543 10.5085 13.8117 11.8659 10.3681C11.8659 10.3681 13.9652 9.69613 18.7427 12.9307C20.7367 12.3766 22.8755 12.099 25.0001 12.0896C27.1247 12.099 29.265 12.3766 31.263 12.9307C36.0348 9.69613 38.1312 10.3681 38.1312 10.3681C39.4919 13.8117 38.6359 16.3543 38.3763 16.9841C39.9792 18.7348 40.9491 20.9649 40.9491 23.6945C40.9491 33.2965 35.1007 35.4109 29.5339 36.0297C30.4305 36.8056 31.2295 38.3271 31.2295 40.6594C31.2295 44.0043 31.2005 46.6966 31.2005 47.5201C31.2005 48.1854 31.6504 48.9649 32.9179 48.7195C42.8457 45.41 50 36.0423 50 25.0001C50 11.1927 38.8069 0 25.0001 0Z" fill="#161614"/>
<path d="M9.36341 35.6134C9.30851 35.7375 9.11283 35.7748 8.935 35.6897C8.75363 35.6081 8.65167 35.4387 8.71049 35.314C8.76441 35.1861 8.96009 35.1505 9.14107 35.2363C9.32282 35.3177 9.42635 35.4887 9.36341 35.6134ZM10.5932 36.7106C10.474 36.8212 10.2408 36.7698 10.0826 36.5951C9.91908 36.4208 9.88849 36.1879 10.0095 36.0755C10.1324 35.9651 10.3585 36.0167 10.5224 36.1912C10.6859 36.3675 10.7177 36.599 10.593 36.7108M11.4369 38.1145C11.2835 38.2209 11.033 38.1211 10.8783 37.8988C10.7251 37.6766 10.7251 37.41 10.8816 37.3031C11.0369 37.1963 11.2835 37.2923 11.4404 37.5129C11.5933 37.739 11.5933 38.0057 11.4367 38.1147M12.8635 39.7405C12.7264 39.8915 12.4347 39.8511 12.221 39.6448C12.0025 39.4433 11.9416 39.1572 12.079 39.006C12.2176 38.8546 12.5111 38.8972 12.7264 39.1017C12.9435 39.3029 13.0096 39.5911 12.8635 39.7405ZM14.7073 40.2895C14.6471 40.4852 14.366 40.5742 14.0829 40.4911C13.8001 40.4054 13.615 40.176 13.6721 39.9781C13.7309 39.7811 14.0132 39.6883 14.2985 39.7774C14.5809 39.8627 14.7662 40.0903 14.7073 40.2895ZM16.8061 40.5222C16.8131 40.7285 16.573 40.8995 16.2757 40.9032C15.9767 40.9097 15.735 40.7428 15.7318 40.5401C15.7318 40.3318 15.9665 40.1624 16.2653 40.1575C16.5626 40.1517 16.8061 40.3173 16.8061 40.5222ZM18.8676 40.4432C18.9033 40.6444 18.6966 40.851 18.4015 40.9059C18.1113 40.9589 17.8427 40.8348 17.8057 40.6354C17.7696 40.4291 17.9802 40.2226 18.2698 40.1691C18.5654 40.1177 18.8299 40.2387 18.8676 40.4432Z" fill="#161614"/>
</svg>
