<svg width="50" height="50" viewBox="0 0 50 50" fill="none" xmlns="http://www.w3.org/2000/svg">
<path d="M0 3.58164C0 1.60469 1.65508 0 3.69531 0H46.3047C48.3457 0 50 1.60469 50 3.58164V46.4189C50 48.3965 48.3457 50 46.3047 50H3.69531C1.65527 50 0 48.3967 0 46.4195V3.58105V3.58164Z" fill="#161614"/>
<path d="M15.1945 41.8433V19.3331H7.7125V41.8433H15.1953H15.1945ZM11.4551 16.2603C14.0637 16.2603 15.6877 14.5317 15.6877 12.3716C15.6389 10.1622 14.0637 8.48193 11.5047 8.48193C8.94395 8.48193 7.27148 10.1622 7.27148 12.3714C7.27148 14.5315 8.89492 16.2601 11.4061 16.2601H11.4545L11.4551 16.2603ZM19.3359 41.8433H26.8174V29.2739C26.8174 28.602 26.8662 27.9284 27.0639 27.4485C27.6045 26.1038 28.8355 24.7118 30.9029 24.7118C33.6096 24.7118 34.693 26.7759 34.693 29.8022V41.8433H42.1742V28.9366C42.1742 22.0228 38.4836 18.8054 33.5611 18.8054C29.5254 18.8054 27.7529 21.061 26.7682 22.5974H26.818V19.3339H19.3363C19.434 21.4456 19.3357 41.844 19.3357 41.844L19.3359 41.8433Z" fill="white"/>
</svg>
