<svg width="70" height="81" viewBox="0 0 70 81" fill="none" xmlns="http://www.w3.org/2000/svg">
<path d="M40.4099 11.0204C41.326 9.86052 41.8924 8.39814 41.8924 6.80914C41.8924 3.05442 38.8471 0 35.0924 0C31.3376 0 28.2878 3.05442 28.2878 6.80914C28.2878 8.39844 28.7738 9.86052 29.6893 11.0204C26.886 12.7975 24.9567 15.9255 24.9567 19.4833V27.7677C24.9567 29.0286 26.1087 30.123 27.3696 30.123H42.8337C44.0946 30.123 45.0439 29.0283 45.0439 27.7677V19.4833C45.0436 15.9255 43.2139 12.7972 40.4099 11.0204Z" fill="url(#paint0_linear_24_81)"/>
<path d="M19.7828 37.903V29.6187C19.7828 26.0612 18.0316 22.9325 15.2277 21.1558C16.1438 19.9959 16.7494 18.5335 16.7494 16.9445C16.7494 13.1898 13.7236 10.1354 9.96887 10.1354C6.21415 10.1354 3.17403 13.1901 3.17403 16.9448C3.17403 18.5341 3.73859 19.9962 4.65407 21.1561C1.85043 22.9331 0 26.0612 0 29.619V37.9033C0 39.1643 1.00465 40.1668 2.26525 40.1668H17.7294C18.9903 40.1665 19.7828 39.1639 19.7828 37.903Z" fill="url(#paint1_linear_24_81)"/>
<path d="M65.4488 21.156C66.3643 19.9961 66.9723 18.5338 66.9723 16.9448C66.9723 13.19 63.9475 10.1356 60.1927 10.1356C56.438 10.1356 53.3982 13.19 53.3982 16.9448C53.3982 18.5341 53.9591 19.9961 54.8749 21.156C52.0712 22.9331 50.2172 26.0612 50.2172 29.619V37.9033C50.2172 39.1642 51.2294 40.1667 52.4903 40.1667H67.9545C69.2154 40.1667 70 39.1642 70 37.9033V29.619C70 26.0612 68.2521 22.9328 65.4488 21.156Z" fill="url(#paint2_linear_24_81)"/>
<path d="M40.4099 61.3149C41.326 60.155 41.8924 58.6929 41.8924 57.1039C41.8924 53.3492 38.8471 50.2948 35.0924 50.2948C31.3376 50.2948 28.2878 53.3492 28.2878 57.1039C28.2878 58.6929 28.7738 60.1553 29.6893 61.3152C26.886 63.0923 24.9567 66.2203 24.9567 69.7781V78.0625C24.9567 79.3234 26.1087 80.3402 27.3696 80.3402H42.8337C44.0946 80.3402 45.0439 79.3231 45.0439 78.0625V69.7781C45.0436 66.22 43.2139 63.0923 40.4099 61.3149ZM35.1015 54.86C36.3387 54.86 37.3454 55.8668 37.3454 57.1039C37.3454 58.3414 36.3387 59.3479 35.1015 59.3479C33.8643 59.3479 32.8576 58.3411 32.8576 57.1039C32.8576 55.8668 33.864 54.86 35.1015 54.86ZM40.4784 75.775H29.5219V69.7781C29.5219 66.773 31.9953 64.3285 35.0005 64.3285C38.005 64.3285 40.4784 66.773 40.4784 69.7781V75.775Z" fill="url(#paint3_linear_24_81)"/>
<path d="M37.1306 42.1687V34.6045C37.1306 33.3436 36.1089 32.3219 34.848 32.3219C33.5871 32.3219 32.5654 33.3436 32.5654 34.6045V42.1687C32.5654 43.4296 33.5871 44.4513 34.848 44.4513C36.1086 44.4513 37.1306 43.4293 37.1306 42.1687Z" fill="url(#paint4_linear_24_81)"/>
<path d="M12.8872 42.6623C11.9715 41.7959 10.5277 41.8351 9.65996 42.7503C8.79318 43.6658 8.83275 45.1105 9.74791 45.9776L21.2245 56.8449C21.6661 57.2628 22.2304 57.47 22.7937 57.47C23.3985 57.47 24.0026 57.2308 24.4515 56.7569C25.3183 55.8415 25.2787 54.3967 24.3635 53.5296L12.8872 42.6623Z" fill="url(#paint5_linear_24_81)"/>
<path d="M57.2944 42.6301L45.8492 53.5223C44.9358 54.3912 44.9002 55.8363 45.7691 56.7493C46.2177 57.2211 46.8197 57.4585 47.423 57.4585C47.9881 57.4585 48.5545 57.2497 48.9961 56.8294L60.4414 45.9371C61.3547 45.0682 61.3903 43.6235 60.5214 42.7104C59.6525 41.7965 58.2075 41.7615 57.2944 42.6301Z" fill="url(#paint6_linear_24_81)"/>
<defs>
<linearGradient id="paint0_linear_24_81" x1="45.4743" y1="15.3727" x2="24.5259" y2="15.2629" gradientUnits="userSpaceOnUse">
<stop stop-color="#6A82FB"/>
<stop offset="1" stop-color="#FC5C7D"/>
</linearGradient>
<linearGradient id="paint1_linear_24_81" x1="20.2067" y1="25.4613" x2="-0.424332" y2="25.3545" gradientUnits="userSpaceOnUse">
<stop stop-color="#6A82FB"/>
<stop offset="1" stop-color="#FC5C7D"/>
</linearGradient>
<linearGradient id="paint2_linear_24_81" x1="70.4239" y1="25.4614" x2="49.7928" y2="25.3545" gradientUnits="userSpaceOnUse">
<stop stop-color="#6A82FB"/>
<stop offset="1" stop-color="#FC5C7D"/>
</linearGradient>
<linearGradient id="paint3_linear_24_81" x1="45.4743" y1="65.6279" x2="24.5259" y2="65.5178" gradientUnits="userSpaceOnUse">
<stop stop-color="#6A82FB"/>
<stop offset="1" stop-color="#FC5C7D"/>
</linearGradient>
<linearGradient id="paint4_linear_24_81" x1="37.2284" y1="38.5119" x2="32.4674" y2="38.4978" gradientUnits="userSpaceOnUse">
<stop stop-color="#6A82FB"/>
<stop offset="1" stop-color="#FC5C7D"/>
</linearGradient>
<linearGradient id="paint5_linear_24_81" x1="25.4204" y1="49.9131" x2="8.69143" y2="49.7764" gradientUnits="userSpaceOnUse">
<stop stop-color="#6A82FB"/>
<stop offset="1" stop-color="#FC5C7D"/>
</linearGradient>
<linearGradient id="paint6_linear_24_81" x1="61.4935" y1="49.8894" x2="44.7974" y2="49.7535" gradientUnits="userSpaceOnUse">
<stop stop-color="#6A82FB"/>
<stop offset="1" stop-color="#FC5C7D"/>
</linearGradient>
</defs>
</svg>
