<svg width="70" height="70" viewBox="0 0 70 70" fill="none" xmlns="http://www.w3.org/2000/svg">
<path d="M2.92751 64.1438C2.54264 64.1423 2.16127 64.217 1.8054 64.3636C1.44954 64.5101 1.12621 64.7257 0.854062 64.9979C0.581916 65.27 0.366337 65.5933 0.219758 65.9492C0.073178 66.3051 -0.0015024 66.6864 2.29016e-05 67.0713C0.00134243 67.4544 0.0781218 67.8334 0.225974 68.1868C0.373827 68.5401 0.589855 68.8609 0.861717 69.1308C1.13358 69.4006 1.45595 69.6143 1.8104 69.7595C2.16486 69.9047 2.54445 69.9787 2.92751 69.9772H67.0726C67.4556 69.9787 67.8352 69.9047 68.1897 69.7595C68.5441 69.6142 68.8665 69.4006 69.1383 69.1307C69.4102 68.8609 69.6262 68.5401 69.774 68.1867C69.9219 67.8334 69.9987 67.4544 70 67.0713C70.0015 66.6864 69.9268 66.3051 69.7803 65.9492C69.6337 65.5934 69.4181 65.27 69.146 64.9979C68.8738 64.7258 68.5505 64.5102 68.1947 64.3636C67.8388 64.217 67.4575 64.1423 67.0726 64.1438H2.92751Z" fill="url(#paint0_linear_24_96)"/>
<path d="M12.829 43.7379C9.00234 43.7379 5.83339 46.9069 5.83339 50.7337V67.0713C5.83475 67.4543 5.91155 67.8333 6.05941 68.1867C6.20727 68.54 6.42329 68.8608 6.69513 69.1306C6.96697 69.4005 7.28931 69.6141 7.64374 69.7594C7.99816 69.9046 8.37773 69.9786 8.76076 69.9772H20.4275C21.1973 69.9744 21.9349 69.6674 22.4792 69.123C23.0236 68.5787 23.3307 67.8411 23.3334 67.0713V50.7337C23.3334 46.9069 20.1643 43.7379 16.3376 43.7379H12.829Z" fill="url(#paint1_linear_24_96)"/>
<path d="M33.2565 33.8148C29.4298 33.8148 26.2607 36.9837 26.2607 40.8106V67.0713C26.2635 67.8411 26.5705 68.5787 27.1149 69.123C27.6592 69.6674 28.3968 69.9744 29.1666 69.9772H40.8334C41.6032 69.9744 42.3408 69.6674 42.8851 69.123C43.4295 68.5787 43.7365 67.8411 43.7392 67.0713V40.8106C43.7392 36.9837 40.5702 33.8148 36.7435 33.8148H33.2565Z" fill="url(#paint2_linear_24_96)"/>
<path d="M53.6624 25.0756C49.8357 25.0756 46.6666 28.2445 46.6666 32.0713V67.0713C46.6694 67.8411 46.9764 68.5787 47.5208 69.1231C48.0652 69.6674 48.8028 69.9745 49.5726 69.9772H61.2392C61.6223 69.9786 62.0019 69.9046 62.3563 69.7594C62.7107 69.6142 63.0331 69.4005 63.3049 69.1307C63.5768 68.8608 63.7928 68.5401 63.9407 68.1867C64.0886 67.8333 64.1654 67.4543 64.1667 67.0713V32.0713C64.1667 28.2445 60.9762 25.0756 57.1495 25.0756H53.6624Z" fill="url(#paint3_linear_24_96)"/>
<path d="M50.931 1.07994e-07C50.1606 0.00149699 49.4221 0.307812 48.8768 0.852035C48.3315 1.39626 48.0237 2.13416 48.0207 2.90456C48.0192 3.28797 48.0933 3.6679 48.2388 4.02263C48.3844 4.37735 48.5984 4.6999 48.8687 4.9718C49.139 5.2437 49.4603 5.45963 49.8142 5.60721C50.1681 5.7548 50.5476 5.83115 50.931 5.8319H53.9437C37.4519 20.0107 20.1839 28.8184 2.39065 32.1153C1.63215 32.259 0.96159 32.6976 0.526005 33.335C0.0904196 33.9724 -0.0746413 34.7565 0.0670149 35.5154C0.205691 36.2733 0.638756 36.9456 1.27158 37.3853C1.9044 37.8249 2.68553 37.9963 3.44427 37.8618C22.6025 34.3119 41.0361 24.7922 58.3347 9.77868V13.2129C58.3332 13.5958 58.4072 13.9753 58.5523 14.3296C58.6975 14.684 58.911 15.0063 59.1807 15.2781C59.4504 15.5499 59.7711 15.766 60.1243 15.9139C60.4775 16.0618 60.8563 16.1387 61.2393 16.1402C61.6241 16.1417 62.0055 16.0671 62.3613 15.9205C62.7171 15.7739 63.0405 15.5583 63.3126 15.2862C63.5847 15.0141 63.8003 14.6908 63.9469 14.3349C64.0934 13.9791 64.1681 13.5977 64.1666 13.2129V4.62451C64.1672 2.10778 62.0361 -0.000550937 59.5193 1.07994e-07H50.931Z" fill="url(#paint4_linear_24_96)"/>
<defs>
<linearGradient id="paint0_linear_24_96" x1="67" y1="67.0198" x2="4.47611" y2="83.8115" gradientUnits="userSpaceOnUse">
<stop stop-color="#6A82FB"/>
<stop offset="1" stop-color="#FC5C7D"/>
</linearGradient>
<linearGradient id="paint1_linear_24_96" x1="22.5834" y1="56.6743" x2="5.82873" y2="56.9244" gradientUnits="userSpaceOnUse">
<stop stop-color="#6A82FB"/>
<stop offset="1" stop-color="#FC5C7D"/>
</linearGradient>
<linearGradient id="paint2_linear_24_96" x1="42.9902" y1="51.6435" x2="26.2543" y2="51.8245" gradientUnits="userSpaceOnUse">
<stop stop-color="#6A82FB"/>
<stop offset="1" stop-color="#FC5C7D"/>
</linearGradient>
<linearGradient id="paint3_linear_24_96" x1="63.4167" y1="47.2129" x2="46.6595" y2="47.359" gradientUnits="userSpaceOnUse">
<stop stop-color="#6A82FB"/>
<stop offset="1" stop-color="#FC5C7D"/>
</linearGradient>
<linearGradient id="paint4_linear_24_96" x1="61.4174" y1="18.6886" x2="0.074714" y2="21.0119" gradientUnits="userSpaceOnUse">
<stop stop-color="#6A82FB"/>
<stop offset="1" stop-color="#FC5C7D"/>
</linearGradient>
</defs>
</svg>
