<svg width="70" height="70" viewBox="0 0 70 70" fill="none" xmlns="http://www.w3.org/2000/svg">
<path d="M35 0C28.0777 0 21.3108 2.05271 15.5551 5.89856C9.79933 9.74441 5.3133 15.2107 2.66423 21.6061C0.0151648 28.0015 -0.677952 35.0388 0.672531 41.8282C2.02301 48.6175 5.35644 54.8539 10.2513 59.7487C15.1461 64.6436 21.3825 67.977 28.1718 69.3275C34.9612 70.678 41.9985 69.9848 48.3939 67.3358C54.7893 64.6867 60.2556 60.2007 64.1014 54.4449C67.9473 48.6892 70 41.9223 70 35C70 25.7174 66.3125 16.815 59.7487 10.2513C53.185 3.68749 44.2826 0 35 0ZM15.0719 26.0094C15.0719 25.1441 15.3285 24.2982 15.8092 23.5787C16.2899 22.8593 16.9732 22.2985 17.7726 21.9674C18.5721 21.6363 19.4517 21.5496 20.3004 21.7184C21.1491 21.8872 21.9286 22.3039 22.5405 22.9158C23.1523 23.5276 23.569 24.3072 23.7378 25.1559C23.9066 26.0045 23.82 26.8842 23.4889 27.6836C23.1577 28.483 22.597 29.1663 21.8775 29.647C21.158 30.1278 20.3122 30.3844 19.4469 30.3844C18.2866 30.3844 17.1738 29.9234 16.3533 29.103C15.5328 28.2825 15.0719 27.1697 15.0719 26.0094ZM35.2844 57.3344C31.2714 57.3396 27.3601 56.0718 24.1133 53.7134C20.8665 51.3549 18.4515 48.0273 17.2156 44.2094H53.3313C52.0966 48.0238 49.6848 51.3488 46.4424 53.7069C43.2 56.0651 39.2936 57.335 35.2844 57.3344ZM50.4438 30.3844C49.5785 30.3844 48.7326 30.1278 48.0131 29.647C47.2937 29.1663 46.7329 28.483 46.4018 27.6836C46.0706 26.8842 45.984 26.0045 46.1528 25.1559C46.3216 24.3072 46.7383 23.5276 47.3502 22.9158C47.962 22.3039 48.7416 21.8872 49.5902 21.7184C50.4389 21.5496 51.3186 21.6363 52.118 21.9674C52.9174 22.2985 53.6007 22.8593 54.0814 23.5787C54.5622 24.2982 54.8188 25.1441 54.8188 26.0094C54.8188 26.5857 54.7049 27.1564 54.4836 27.6887C54.2624 28.2209 53.9382 28.7042 53.5296 29.1107C53.121 29.5173 52.6362 29.8391 52.1028 30.0576C51.5695 30.2762 50.9982 30.3872 50.4219 30.3844H50.4438Z" fill="url(#paint0_linear_24_105)"/>
<defs>
<linearGradient id="paint0_linear_24_105" x1="70" y1="35" x2="0" y2="35" gradientUnits="userSpaceOnUse">
<stop stop-color="#6A82FB"/>
<stop offset="1" stop-color="#FC5C7D"/>
</linearGradient>
</defs>
</svg>
