<svg width="198" height="50" viewBox="0 0 198 50" fill="none" xmlns="http://www.w3.org/2000/svg">
<path d="M70.2259 15.8182L74.9577 30.1293H75.1442L79.8672 15.8182H83.4893L77.0795 34H73.0135L66.6126 15.8182H70.2259ZM90.2254 34.2663C88.8937 34.2663 87.7396 33.9734 86.7631 33.3874C85.7865 32.8015 85.0289 31.9818 84.4903 30.9283C83.9577 29.8748 83.6913 28.6437 83.6913 27.2351C83.6913 25.8265 83.9577 24.5924 84.4903 23.533C85.0289 22.4736 85.7865 21.6509 86.7631 21.065C87.7396 20.479 88.8937 20.1861 90.2254 20.1861C91.5571 20.1861 92.7112 20.479 93.6878 21.065C94.6643 21.6509 95.4189 22.4736 95.9516 23.533C96.4902 24.5924 96.7595 25.8265 96.7595 27.2351C96.7595 28.6437 96.4902 29.8748 95.9516 30.9283C95.4189 31.9818 94.6643 32.8015 93.6878 33.3874C92.7112 33.9734 91.5571 34.2663 90.2254 34.2663ZM90.2432 31.6918C90.9652 31.6918 91.5689 31.4935 92.0542 31.0969C92.5396 30.6945 92.9006 30.1559 93.1373 29.4812C93.38 28.8065 93.5013 28.0548 93.5013 27.2262C93.5013 26.3917 93.38 25.6371 93.1373 24.9624C92.9006 24.2817 92.5396 23.7402 92.0542 23.3377C91.5689 22.9353 90.9652 22.734 90.2432 22.734C89.5033 22.734 88.8878 22.9353 88.3966 23.3377C87.9113 23.7402 87.5473 24.2817 87.3046 24.9624C87.0679 25.6371 86.9495 26.3917 86.9495 27.2262C86.9495 28.0548 87.0679 28.8065 87.3046 29.4812C87.5473 30.1559 87.9113 30.6945 88.3966 31.0969C88.8878 31.4935 89.5033 31.6918 90.2432 31.6918ZM102.701 15.8182V34H99.4872V15.8182H102.701ZM114.697 28.2649V20.3636H117.911V34H114.795V31.5763H114.653C114.345 32.3398 113.839 32.9643 113.135 33.4496C112.436 33.9349 111.575 34.1776 110.551 34.1776C109.658 34.1776 108.867 33.9793 108.181 33.5827C107.5 33.1803 106.968 32.5973 106.583 31.8338C106.198 31.0644 106.006 30.1352 106.006 29.0462V20.3636H109.22V28.549C109.22 29.4131 109.456 30.0997 109.93 30.6087C110.403 31.1177 111.025 31.3722 111.794 31.3722C112.268 31.3722 112.726 31.2567 113.17 31.0259C113.614 30.7951 113.978 30.4518 114.262 29.9961C114.552 29.5344 114.697 28.9574 114.697 28.2649ZM124.43 26.0099V34H121.216V20.3636H124.287V22.6808H124.447C124.761 21.9173 125.261 21.3106 125.948 20.8608C126.64 20.411 127.495 20.1861 128.513 20.1861C129.454 20.1861 130.274 20.3873 130.972 20.7898C131.677 21.1922 132.221 21.7752 132.606 22.5387C132.997 23.3022 133.189 24.2285 133.183 25.3175V34H129.969V25.8146C129.969 24.9032 129.733 24.19 129.259 23.6751C128.791 23.1602 128.143 22.9027 127.315 22.9027C126.753 22.9027 126.252 23.027 125.814 23.2756C125.382 23.5182 125.042 23.8704 124.794 24.332C124.551 24.7937 124.43 25.353 124.43 26.0099ZM143.259 20.3636V22.8494H135.42V20.3636H143.259ZM137.356 17.0966H140.569V29.8984C140.569 30.3305 140.635 30.6619 140.765 30.8928C140.901 31.1177 141.078 31.2715 141.297 31.3544C141.516 31.4373 141.759 31.4787 142.025 31.4787C142.227 31.4787 142.41 31.4639 142.576 31.4343C142.747 31.4047 142.878 31.3781 142.966 31.3544L143.508 33.8668C143.336 33.926 143.091 33.9911 142.771 34.0621C142.457 34.1332 142.073 34.1746 141.617 34.1864C140.812 34.2101 140.087 34.0888 139.442 33.8224C138.797 33.5502 138.285 33.13 137.906 32.5618C137.533 31.9936 137.35 31.2834 137.356 30.4311V17.0966ZM151.838 34.2663C150.47 34.2663 149.29 33.9822 148.295 33.4141C147.307 32.84 146.546 32.0291 146.014 30.9815C145.481 29.928 145.215 28.6881 145.215 27.2617C145.215 25.859 145.481 24.628 146.014 23.5685C146.552 22.5032 147.304 21.6746 148.269 21.0827C149.233 20.485 150.367 20.1861 151.669 20.1861C152.509 20.1861 153.302 20.3222 154.048 20.5945C154.8 20.8608 155.463 21.2751 156.037 21.8374C156.617 22.3996 157.073 23.1158 157.404 23.9858C157.735 24.8499 157.901 25.8797 157.901 27.0753V28.0607H146.724V25.8945H154.821C154.815 25.279 154.681 24.7315 154.421 24.2521C154.161 23.7668 153.797 23.3851 153.329 23.1069C152.867 22.8287 152.329 22.6896 151.713 22.6896C151.056 22.6896 150.479 22.8494 149.982 23.169C149.485 23.4827 149.097 23.897 148.819 24.4119C148.547 24.9209 148.408 25.4802 148.402 26.0898V27.9808C148.402 28.7739 148.547 29.4545 148.837 30.0227C149.127 30.585 149.532 31.017 150.053 31.3189C150.574 31.6148 151.184 31.7628 151.882 31.7628C152.35 31.7628 152.773 31.6977 153.152 31.5675C153.53 31.4313 153.859 31.2331 154.137 30.9727C154.415 30.7122 154.625 30.3897 154.767 30.005L157.768 30.3423C157.579 31.1354 157.218 31.8279 156.685 32.4197C156.158 33.0057 155.483 33.4614 154.661 33.7869C153.838 34.1065 152.897 34.2663 151.838 34.2663ZM166.657 34.2663C165.29 34.2663 164.109 33.9822 163.115 33.4141C162.126 32.84 161.366 32.0291 160.833 30.9815C160.3 29.928 160.034 28.6881 160.034 27.2617C160.034 25.859 160.3 24.628 160.833 23.5685C161.372 22.5032 162.123 21.6746 163.088 21.0827C164.053 20.485 165.186 20.1861 166.488 20.1861C167.329 20.1861 168.122 20.3222 168.868 20.5945C169.619 20.8608 170.282 21.2751 170.856 21.8374C171.436 22.3996 171.892 23.1158 172.223 23.9858C172.555 24.8499 172.721 25.8797 172.721 27.0753V28.0607H161.543V25.8945H169.64C169.634 25.279 169.501 24.7315 169.24 24.2521C168.98 23.7668 168.616 23.3851 168.148 23.1069C167.687 22.8287 167.148 22.6896 166.533 22.6896C165.876 22.6896 165.299 22.8494 164.801 23.169C164.304 23.4827 163.917 23.897 163.638 24.4119C163.366 24.9209 163.227 25.4802 163.221 26.0898V27.9808C163.221 28.7739 163.366 29.4545 163.656 30.0227C163.946 30.585 164.352 31.017 164.873 31.3189C165.393 31.6148 166.003 31.7628 166.701 31.7628C167.169 31.7628 167.592 31.6977 167.971 31.5675C168.35 31.4313 168.678 31.2331 168.956 30.9727C169.234 30.7122 169.445 30.3897 169.587 30.005L172.587 30.3423C172.398 31.1354 172.037 31.8279 171.504 32.4197C170.978 33.0057 170.303 33.4614 169.48 33.7869C168.657 34.1065 167.716 34.2663 166.657 34.2663ZM175.439 34V20.3636H178.555V22.6364H178.698C178.946 21.8492 179.372 21.2425 179.976 20.8164C180.586 20.3844 181.281 20.1683 182.062 20.1683C182.24 20.1683 182.438 20.1772 182.657 20.195C182.882 20.2068 183.068 20.2275 183.216 20.2571V23.2134C183.08 23.1661 182.864 23.1246 182.568 23.0891C182.278 23.0477 181.997 23.027 181.725 23.027C181.139 23.027 180.612 23.1542 180.145 23.4087C179.683 23.6573 179.319 24.0036 179.053 24.4474C178.786 24.8913 178.653 25.4033 178.653 25.9833V34H175.439ZM189.031 34.2752C188.167 34.2752 187.389 34.1213 186.696 33.8136C186.01 33.4999 185.465 33.0382 185.063 32.4286C184.666 31.819 184.468 31.0674 184.468 30.1737C184.468 29.4042 184.61 28.768 184.894 28.2649C185.178 27.7618 185.566 27.3594 186.057 27.0575C186.549 26.7557 187.102 26.5278 187.717 26.3739C188.339 26.2141 188.981 26.0987 189.644 26.0277C190.443 25.9448 191.091 25.8709 191.588 25.8058C192.085 25.7347 192.446 25.6282 192.671 25.4862C192.902 25.3382 193.017 25.1103 193.017 24.8026V24.7493C193.017 24.0805 192.819 23.5626 192.423 23.1957C192.026 22.8287 191.455 22.6452 190.709 22.6452C189.922 22.6452 189.298 22.8169 188.836 23.1602C188.38 23.5034 188.073 23.9089 187.913 24.3764L184.912 23.9503C185.149 23.1217 185.539 22.4292 186.084 21.8729C186.628 21.3106 187.294 20.8904 188.081 20.6122C188.869 20.3281 189.739 20.1861 190.691 20.1861C191.348 20.1861 192.002 20.263 192.653 20.4169C193.305 20.5708 193.899 20.8253 194.438 21.1804C194.977 21.5296 195.409 22.006 195.734 22.6097C196.066 23.2134 196.231 23.968 196.231 24.8736V34H193.142V32.1268H193.035C192.84 32.5056 192.565 32.8607 192.21 33.1921C191.86 33.5176 191.419 33.781 190.887 33.9822C190.36 34.1776 189.742 34.2752 189.031 34.2752ZM189.866 31.9137C190.511 31.9137 191.07 31.7865 191.544 31.532C192.017 31.2715 192.381 30.9283 192.636 30.5021C192.896 30.076 193.026 29.6114 193.026 29.1083V27.5014C192.926 27.5843 192.754 27.6612 192.511 27.7322C192.275 27.8033 192.008 27.8654 191.712 27.9187C191.417 27.9719 191.124 28.0193 190.834 28.0607C190.544 28.1022 190.292 28.1377 190.079 28.1673C189.6 28.2324 189.17 28.3389 188.792 28.4869C188.413 28.6348 188.114 28.842 187.895 29.1083C187.676 29.3687 187.566 29.7061 187.566 30.1204C187.566 30.7122 187.783 31.1591 188.215 31.4609C188.647 31.7628 189.197 31.9137 189.866 31.9137Z" fill="black"/>
<g clip-path="url(#clip0_24_185)">
<path d="M38.1248 20H26.2498V24.375C26.2498 27.4766 23.7264 30 20.6248 30C17.5233 30 14.9998 27.4766 14.9998 24.375V14.875L9.92952 17.9219C8.4217 18.8203 7.49983 20.4531 7.49983 22.2031V25.8985L1.24983 29.5078C0.0545162 30.1953 -0.359546 31.7266 0.335766 32.9219L6.58577 43.75C7.27327 44.9453 8.80452 45.3516 9.99983 44.6641L18.078 40H28.7498C31.5076 40 33.7498 37.7578 33.7498 35H34.9998C36.3826 35 37.4998 33.8828 37.4998 32.5V27.5H38.1248C39.1639 27.5 39.9998 26.6641 39.9998 25.625V21.875C39.9998 20.836 39.1639 20 38.1248 20ZM49.6639 17.0781L43.4139 6.25002C42.7264 5.05471 41.1951 4.64846 39.9998 5.33596L31.9217 10H23.9373C22.9998 10 22.0858 10.2656 21.2889 10.7578L18.6717 12.3906C17.9373 12.8438 17.4998 13.6485 17.4998 14.5078V24.375C17.4998 26.1016 18.8983 27.5 20.6248 27.5C22.3514 27.5 23.7498 26.1016 23.7498 24.375V17.5H38.1248C40.5389 17.5 42.4998 19.461 42.4998 21.875V24.1016L48.7498 20.4922C49.9451 19.7969 50.3514 18.2735 49.6639 17.0781Z" fill="url(#paint0_linear_24_185)"/>
</g>
<defs>
<linearGradient id="paint0_linear_24_185" x1="24.9981" y1="5.00171" x2="24.9981" y2="44.9983" gradientUnits="userSpaceOnUse">
<stop stop-color="#FB5C7D"/>
<stop offset="1" stop-color="#6A81FA"/>
</linearGradient>
<clipPath id="clip0_24_185">
<rect width="50" height="50" fill="white"/>
</clipPath>
</defs>
</svg>
